<svg xmlns="http://www.w3.org/2000/svg" width="600" height="600" overflow="hidden"><path d="M301.213 305.03h-2.55v-2.55h2.55v2.55z" fill="#3b3128"/><path d="M543.251 558.189c-5.6-12.103-20.897-30.037-37.893-34.991-21.01-6.128-68.434-13.536-86.02-17.654-14.096-3.305-42.487-28.8-52.437-37.358-1.785-1.53-3.246-4.689-3.282-7.038-.355-27.703 10.697-101.296 10.697-101.296H225.562s11.052 73.59 10.692 101.296c-.028 2.349-1.497 5.508-3.277 7.038-9.95 8.558-38.341 34.053-52.438 37.358-17.587 4.118-65.012 11.778-86.019 17.906-17 4.952-32.293 22.634-37.893 34.736-9.455 20.42-11.69 57.375-11.69 89.25h510c0-31.872-2.236-68.827-11.686-89.247z" fill="#f0c7b1"/><path d="M450.785 518.103c62.073 9.032 88.195 22.205 96.375 129.338h7.778c0-31.875-2.237-68.83-11.687-89.25-5.6-12.102-20.897-30.036-37.893-34.99-21.01-6.128-68.434-13.536-86.02-17.654-14.096-3.305-46.516-30.776-55.189-41.693 8.568 11.995 32.617 39.793 53.688 47.073 10.08 3.483 18.475 5.07 32.948 7.176zm-268.744-7.176c21.07-7.278 45.117-35.078 53.688-47.073-8.67 10.914-41.09 38.388-55.19 41.693-17.585 4.118-65.01 11.778-86.019 17.906-16.996 4.952-32.293 22.633-37.893 34.736-9.45 20.42-11.687 57.375-11.687 89.25h7.778c8.13-106.448 34.361-120.317 96.375-129.339 14.47-2.104 22.868-3.69 32.948-7.173z" fill="#ffe4d6"/><path d="M288.835 552.686s-12.939-4.103-18.062-6.067c-26.645-10.223-113.207-16.848-113.207-16.848s91.173 3.619 111.292 7.087c-1.168-12.156-7.693-51.01-7.693-51.01s13.13 42.878 16.343 53.695c1.719 5.783 11.327 13.143 11.327 13.143zm27.537-3.422c-.226.186-.487.428-.77.683.289-.217.549-.444.77-.683zm-27.537 3.422s7.377 7.63 11.085 7.726c4.87.13 12.311-7.392 15.685-10.465-3.226 2.44-10.605 3.547-13.54 3.662-3.392.13-13.23-.923-13.23-.923zm53.596-19.174c-3.94.633-11.184 2.012-11.184 2.012l5.831-37.97c-1.647 7.832-11.408 41.339-20.706 51.71 4.871-4.121 15.703-6.097 21.227-6.896 26.101-3.784 26.091-3.781 104.708-12.597 0 0-74.131-.395-99.876 3.741z" fill="#e1ac8f"/><path d="M543.251 558.189c-5.6-12.103-20.897-30.037-37.893-34.991-21.01-6.128-68.434-13.536-86.02-17.654-14.096-3.305-42.487-28.8-52.437-37.358-1.785-1.53-3.246-4.689-3.282-7.038-.355-27.703 10.697-101.296 10.697-101.296H225.562s11.052 73.59 10.692 101.296c-.028 2.349-1.497 5.508-3.277 7.038-9.95 8.558-38.341 34.053-52.438 37.358-17.587 4.118-65.012 11.778-86.019 17.906-17 4.952-32.293 22.634-37.893 34.736-9.455 20.42-11.69 57.375-11.69 89.25h510c0-31.872-2.236-68.827-11.686-89.247z" fill="none" stroke="#c27b55" stroke-width="3.825"/><path d="M100.021 171.866c8.183 0 16.871-4.943 24.199-10.675-.001-6.702 1.451-19.105 2.652-28.205-15.382-2.247-38.406-2.279-53.766-.152 1.184 8.96 2.625 21.206 2.671 28.02 7.342 5.913 16.045 11.012 24.244 11.012z" fill="url(#SvgjsLinearGradient3044)" transform="matrix(2.55 0 0 2.55 44.938 48.755)"/><path d="M330.043 650.27c-48.794 0-105.71-.19-173.994-.585l-60.381-.326c-36.46-.2-38.61-.24-43.062-.24l-12.493.018C28.457 542.356 76.86 514.319 151.706 504.532c19.862-2.798 39.395-7.898 54.72-17.779 41.635 56.72 165.269 44.783 186.413-1.604 3.545 1.352 6.475 3.098 10.142 4.422 11.898 8.754 28.233 14.882 44.951 15.807 66.32 3.675 113.268 33.14 112.345 139.332.008.42.01 2.996-.033 3.8-31.908 0-43.875.308-68.937.668-33.994.484-76.303 1.089-161.233 1.089-.013.002-.02.002-.031.002z" fill="#7db43a"/><path d="M557.628 647.087c-1.046-18.832-10.363-71.548-26.418-95.73-31.83-47.952-107.763-31.125-125.287-50.217-12.714 25.906-63.686 42.317-80.564 44.727 48.911-16.218 69.454-27.945 77.57-55.768 16.333 21.241 104.74 5.026 139.529 62.044 10.187 16.694 19.875 69.834 15.17 94.944zm-370.372-145.38c3.46-.804 5.187-3.186 8.621-4.116l-3.636-4.823c-23.075 17.983-109.418 6.745-139.023 61.292-9.33 17.19-15.624 58.11-10.69 92.92 1.37-21.38 2.038-67.101 18.092-91.285 28.877-43.503 81.534-32.01 121.429-50.426 17.806 21.93 45.614 32.71 73.909 37.17-35.499-9.258-55.853-24.892-68.702-40.733z" fill="#90c352"/><path d="M389.978 490.527c-14.106 29.36-120.742 63.554-180.871 2.241-3.738 1.587-14.923 5.386-14.923 5.386 43.799 59.634 172.153 60.012 206.318-.29-.15-.06-7.05-5.572-10.524-7.337z" fill="#6ba525"/><path d="M392.707 484.81c-24.003 47.996-148.913 54.787-186.18 1.612-13.61 4.023-26.697 12.6-39.873 14.744-78.846 11.742-137.133 17.643-126.816 148.246 25.347 0-16.858-.165 116.206.549 315.154 1.81 304.883-1.176 404.445-1.176.074-.357.038-3.703.053-4.07 5.345-143.911-78.672-135.415-135.455-145.337-8.018-1.83-15.469-7.071-22.02-10.06-3.618-1.655-6.693-3.141-10.36-4.508zm-187.083 3.22c33.083 59.65 163.758 47.683 188.988.258 3.06 1.285 3.842 1.795 7.39 3.052-26.133 54.797-155.403 72.26-208.277 2.966.373-.104 8.17-4.878 11.899-6.275zM42.784 647.44c-6.174-67.4 4.582-122.51 83.588-136.03 26.204-4.835 42.22-5.003 64.73-14.775 42.745 69.883 183.85 59.053 213.174-3.327 4.213 3.592 10.781 7.726 18.883 9.651 46.15 10.963 139.837-2.28 134.89 144.478-137.846-1.79-252.106-5.977-515.266.003z" fill="#4b8603"/><path d="M161.399 263.832c-3.787-6.278-16.134-23.457-25.58-21.048-7.68 1.97-7.58 12.677-8.174 19.01-.867 9.293-1.184 25.48 1.338 32.05 2.425 6.305 10.098 18.492 14.862 23.14 5.862 5.7 15.223 23.863 16.376 25.748 1.813 2.978 5.45 7.242 11.029 6.905 7.83-.472 14.596-7.872 15.21-11.437 3.318-19.354-15.205-58.033-25.061-74.368z" fill="#f0c7b1" stroke="#c27b55" stroke-width="3.825"/><path d="M157.648 302.074c-.365-1.435.018-3.858.393-6.193.339-2.13.657-4.142.464-5.565-.737-5.33-4.884-15.453-7.59-20.94-3.118-6.314-8.157-14.267-14.48-16.318-2.612-.849-4.333.166-5.328 1.194-.734.755-.9 1.645-.66 1.752.242.104.783-.633 1.573-1.324.648-.566-1.295-.102 0 0-.522 2.652-2.205 16.07-1.045 25.865.913 7.706 2.677 13.461 3.22 14.323.08.908.212 1.798.409 2.66 2.555 11.245 19.17 25.951 23.036 30.14.714.773 1.464 1.232 1.647 1.044s-.257-.951-.966-1.73c-3.82-4.16-20.326-18.82-22.794-29.668-2.62-11.511 9.975-28.578 11.982-32.189a63.758 63.758 0 0 1 2.56 4.68c.528 1.063 1.107 2.31 1.709 3.659-1.18 1.881-13.051 15.623-10.032 26.624 1.117 4.057 9.746 9.287 13.084 10.718 1.836.79 2.525 1.968 3.325 3.33.928 1.591.084 5.684 3.137 6.984.622.266 1.183.373 1.68.373.862 0 1.515-.332 1.997-.724.05.69.048 1.578.023 2.4-.03 1.065.12 1.552.377 1.572.263.023.536-.443.569-1.496.043-1.3.036-2.91-.196-3.683-.686-2.267-2.775-4.83-4.99-7.54-2.179-2.665-2.538-7.724-3.104-9.948zm-23.54-9.967c-5.987-17.654 3.272-33.734 4.616-36.157 2.58 1.018 6.533 5.592 8.214 8.25-1.224 2.124-12.58 16.031-12.83 27.907zm27.548 28.131c-2.764-1.178-1.8-5.06-2.692-6.59-.811-1.381-1.648-2.81-3.772-3.722-.459-.199-.966-.5-1.486-.847-6.84-15.49.747-22.261 2.649-23.646.584 1.892 1.017 3.629 1.214 5.024.173 1.275-.15 3.31-.462 5.273-.39 2.435-.79 4.957-.375 6.59.623 2.43 1.048 7.573 3.292 10.322 1.992 2.437 4.037 4.952 4.736 7.002-.301.408-1.247 1.387-3.104.594z" fill="#c27b55"/><path d="M437.806 263.832c3.79-6.278 16.136-23.457 25.579-21.048 7.68 1.97 7.581 12.677 8.178 19.01.867 9.293 1.18 25.48-1.339 32.05-2.425 6.305-10.1 18.492-14.861 23.14-5.863 5.7-15.226 23.863-16.376 25.748-1.813 2.978-5.45 7.242-11.032 6.905-7.828-.472-14.593-7.872-15.21-11.437-3.315-19.354 15.21-58.033 25.061-74.368z" fill="#f0c7b1" stroke="#c27b55" stroke-width="3.825"/><path d="M438.459 312.025c-2.216 2.71-4.305 5.273-4.99 7.54-.235.775-.24 2.384-.2 3.682.036 1.053.31 1.52.574 1.497.26-.02.408-.507.378-1.573-.026-.821-.03-1.709.02-2.4a3.091 3.091 0 0 0 1.997.724c.497 0 1.06-.107 1.683-.372 3.047-1.303 2.205-5.396 3.134-6.984.8-1.362 1.489-2.543 3.327-3.33 3.338-1.431 11.968-6.659 13.084-10.718 3.02-11.001-8.85-24.746-10.031-26.625.596-1.349 1.18-2.596 1.703-3.66a64.43 64.43 0 0 1 2.565-4.678c2.007 3.61 14.6 20.675 11.983 32.188-2.471 10.848-18.975 25.508-22.795 29.67-.711.777-1.155 1.54-.971 1.728.189.189.936-.27 1.647-1.043 3.866-4.19 20.48-18.895 23.034-30.14.2-.863.334-1.752.413-2.66.539-.86 2.306-6.615 3.219-14.324 1.16-9.794-.523-23.212-1.046-25.864 1.295-.102-.648-.566 0 0 .793.69 1.334 1.428 1.573 1.323.24-.107.074-.994-.657-1.752-.998-1.027-2.719-2.042-5.33-1.193-6.324 2.05-11.365 10.004-14.484 16.317-2.706 5.488-6.85 15.611-7.586 20.941-.194 1.423.125 3.435.464 5.564.372 2.336.757 4.758.393 6.194-.567 2.221-.924 7.28-3.101 9.948zm13.81-47.826c1.684-2.657 5.634-7.229 8.214-8.249 1.344 2.423 10.603 18.503 4.618 36.157-.25-11.876-11.605-25.783-12.831-27.908zm-17.819 55.44c.696-2.05 2.744-4.565 4.736-7.002 2.241-2.75 2.67-7.893 3.292-10.323.413-1.632.015-4.154-.373-6.589-.313-1.964-.637-3.998-.464-5.273.194-1.395.627-3.132 1.211-5.024 1.903 1.385 9.489 8.158 2.65 23.646-.518.347-1.025.648-1.49.847-2.12.913-2.957 2.34-3.77 3.723-.893 1.53.073 5.413-2.691 6.589-1.856.798-2.802-.181-3.1-.594z" fill="#c27b55"/><path d="M449.84 247.67h-.013a446662 446662 0 0 1-40.492 133.666c-1.823 6.013-4.924 11.605-9.068 16.284-16.256 18.345-60.608 63.896-100.276 63.896-40.415 0-85.657-48.565-101.255-66.846-3.677-4.304-6.393-9.264-8.089-14.7a557391.845 557391.845 0 0 1-41.149-131.82h-.003a159.177 159.177 0 0 1-5.105-39.867c-.132-86.761 69.243-157.182 154.969-157.317 85.733-.135 155.328 70.064 155.458 156.822.023 13.778-1.706 27.142-4.978 39.882z" fill="#f0c7b1"/><path d="M381.966 74.918c36.49 28.394 60.361 75.115 60.433 128.03.022 13.78-1.569 27.145-4.58 39.885h-.01c-.023.117-28.62 102.688-37.25 133.663-1.679 6.013-4.53 11.605-8.342 16.282-14.956 18.347-55.758 63.9-92.254 63.9-37.184 0-78.805-48.57-93.154-66.848-3.384-4.307-5.88-9.264-7.44-14.698a664099.275 664099.275 0 0 1-37.858-131.822h-.002c-3.045-12.73-4.677-26.09-4.698-39.867-.074-53.109 23.838-100.06 60.469-128.55-43.843 27.818-72.976 77.157-72.89 133.39a159.162 159.162 0 0 0 5.105 39.867h.003c.026.117 31.952 102.364 41.15 131.82 1.698 5.436 4.41 10.393 8.088 14.7 15.596 18.281 60.838 66.846 101.255 66.846 39.67 0 84.02-45.548 100.276-63.896 4.144-4.679 7.245-10.268 9.068-16.284a418309.77 418309.77 0 0 0 40.492-133.666h.012c3.272-12.742 5.001-26.104 4.978-39.884-.084-56.039-29.172-105.137-72.85-132.868z" fill="#e8b9a0"/><path d="M449.84 247.67h-.013a446662 446662 0 0 1-40.492 133.666c-1.823 6.013-4.924 11.605-9.068 16.284-16.256 18.345-60.608 63.896-100.276 63.896-40.415 0-85.657-48.565-101.255-66.846-3.677-4.304-6.393-9.264-8.089-14.7a557391.845 557391.845 0 0 1-41.149-131.82h-.003a159.177 159.177 0 0 1-5.105-39.867c-.132-86.761 69.243-157.182 154.969-157.317 85.733-.135 155.328 70.064 155.458 156.822.023 13.778-1.706 27.142-4.978 39.882z" fill="none" stroke="#c27b55" stroke-width="3.825"/><path d="M96.227 139.237l8.297-.207c-.961 4.47-7.64 3.828-8.297.207z" fill="url(#SvgjsLinearGradient3015)" transform="matrix(2.55 0 0 2.55 44.938 48.755)"/><path d="M290.612 404.53c-.946-.127-.803-1.476.204-1.381.11.015 10.986 1.392 20.09-.548.984-.192 1.274 1.16.33 1.361-7.132 1.525-16.36 1.168-20.624.569zm9.537-9.103c-3.832 0-7.548-1.328-11.28-1.978-4.183-.732-8.35-.105-12.534.265-4.274.38-13.6-.033-16.23-1.699-1.475-.935-1.2-3.113.46-3.694 1.566-.561 4.007.601 5.588.884 7.323 1.314 11.179-.086 17.6-.3 9.82-.296 10.863 3.827 23.113 1.351 13.17-2.662 19.102-.648 28.552-3.494 1.296-.392 2.836-1.428 4.195-.729a2.057 2.057 0 0 1-.125 3.733c-8.685 3.83-18.293 2.283-27.935 3.892-3.78.627-7.545 1.77-11.404 1.77z" fill="#c27b55"/><path d="M61.752 82.523c-.506-2.285 5.191-3.973 12.711-3.051 7.518.923 12.738 5.524 12.052 7.844-.38 1.286-10.639 3.245-14.253 2.847-3.664-.405-9.288-2.123-10.51-7.64z" fill="url(#SvgjsRadialGradient3131)" transform="matrix(2.55 0 0 2.55 44.938 48.755)"/><path d="M249.575 263.592c0 8.449-6.852 15.3-15.3 15.3s-15.3-6.851-15.3-15.3c0-8.45 6.852-15.3 15.3-15.3 8.448-.002 15.3 6.85 15.3 15.3z" fill="#4e60a3"/><path d="M73.328 78.066l-.071.009.085.406c-.006-.137-.009-.277-.014-.415zm.013.414c.07 1.972.185 3.729.517 4.364.175-.696-.123-2.43-.517-4.364zm.518 4.365c-.043.167-.108.281-.208.319-.1.038-.226-.006-.368-.103.041.167.037.297-.036.378-.072.081-.201.101-.373.078.113.13.171.249.146.353-.027.104-.134.182-.293.242.159.063.266.141.291.245.025.104-.033.223-.145.352.17-.021.301.001.371.082.071.081.075.212.035.379.141-.097.265-.139.365-.1.101.038.166.152.206.32.081-.152.171-.249.28-.26.104-.014.216.059.329.188.001-.172.037-.299.127-.36.088-.061.219-.049.379.013-.078-.152-.105-.281-.055-.377.05-.095.173-.146.344-.166-.141-.099-.227-.2-.225-.308 0-.108.084-.209.227-.306-.17-.021-.291-.072-.342-.167-.049-.095-.022-.225.058-.377-.162.06-.292.072-.38.011-.089-.061-.125-.188-.125-.36-.112.128-.224.199-.33.185-.108-.014-.199-.108-.278-.261zm.607.075c.479-.535 1.021-2.209 1.57-4.104-.854 1.777-1.569 3.386-1.57 4.104zm1.569-4.104c.06-.122.121-.246.178-.37-.021-.007-.042-.017-.063-.026-.038.133-.076.266-.115.396zm-1.063 4.454c.672-.252 1.931-1.483 3.297-2.905-1.581 1.176-2.963 2.269-3.297 2.905zm3.297-2.905l.305-.225c-.014-.018-.03-.033-.042-.049-.087.09-.174.183-.263.274zm-3.015 3.449c.713.088 2.4-.417 4.272-1.041-1.948.308-3.678.633-4.272 1.041zm4.272-1.04l.337-.052-.014-.057-.323.109zm-4.273 1.653c.59.412 2.318.747 4.262 1.063-1.865-.633-3.548-1.148-4.262-1.063zm4.263 1.063c.095.033.191.067.285.098a.454.454 0 0 0 .012-.05 18.227 18.227 0 0 1-.297-.048zm-4.551-.52c.333.637 1.708 1.738 3.282 2.924-1.359-1.43-2.609-2.668-3.282-2.924zm3.283 2.922l.179.189.03-.032c-.07-.052-.142-.105-.209-.157zm-3.788-2.575c-.003.719.703 2.331 1.547 4.113-.539-1.897-1.07-3.575-1.547-4.113zm1.547 4.114c.021.075.043.152.063.229l.039-.014a8.622 8.622 0 0 0-.102-.215zm-2.156-4.042c-.336.637-.461 2.39-.542 4.361.404-1.93.713-3.663.542-4.361zm-.542 4.361c-.017.075-.031.151-.047.228.014.003.025.003.039.005l.008-.233zm-.029-4.581c-.596.407-1.521 1.904-2.508 3.61 1.254-1.52 2.334-2.912 2.508-3.61zm-2.508 3.61l-.162.193.038.024.124-.217zm2.103-4.069c-.716.083-2.231.978-3.898 2.029 1.818-.762 3.418-1.491 3.898-2.029zm-3.899 2.031l-.263.11c.006.013.015.027.023.04.081-.049.161-.1.24-.15zm3.752-2.628c-.671-.257-2.429-.168-4.395-.011 1.964.168 3.722.265 4.395.011zm-4.395-.011a38.67 38.67 0 0 0-.323-.029c0 .019-.002.038 0 .056l.323-.027zm4.542-.583c-.473-.539-2.069-1.277-3.881-2.051 1.659 1.06 3.169 1.964 3.881 2.051zm-3.881-2.051a43.261 43.261 0 0 0-.315-.201.71.71 0 0 1-.029.055c.116.049.232.097.344.146zm4.29 1.593c-.169-.698-1.241-2.094-2.485-3.623.976 1.712 1.893 3.213 2.485 3.623zm-2.485-3.623c-.067-.115-.132-.232-.199-.349l-.056.039c.084.103.172.207.255.31z" fill="url(#SvgjsRadialGradient2928)" opacity=".7" transform="matrix(2.55 0 0 2.55 45.575 49.393)"/><path d="M74.886 78.086l-.07-.01-.024.414c.03-.134.063-.27.094-.404zm-.095.403c-.442 1.922-.787 3.649-.629 4.35.349-.628.509-2.38.629-4.35zm-.63 4.35c-.084.15-.176.243-.283.254-.106.01-.216-.064-.327-.195-.004.171-.042.297-.133.356-.09.059-.221.045-.38-.021.076.155.101.285.049.378-.053.094-.176.142-.345.158.137.101.22.204.217.312-.002.107-.089.207-.231.302.169.024.29.079.337.174.048.096.018.225-.064.375.161-.057.292-.065.379-.002.087.063.12.19.116.363.117-.125.229-.196.337-.179.105.014.194.113.27.268.045-.167.113-.279.216-.315.101-.036.225.01.363.111-.036-.167-.029-.299.044-.378.073-.079.205-.096.376-.072-.111-.132-.168-.251-.138-.355.028-.104.136-.18.299-.237-.16-.064-.263-.145-.288-.25-.023-.105.037-.223.154-.349-.172.016-.301-.006-.37-.088-.07-.082-.072-.214-.028-.379-.142.094-.268.134-.367.093-.103-.041-.165-.156-.203-.324zm.568.231c.601-.394 1.557-1.871 2.578-3.558-1.285 1.495-2.391 2.863-2.578 3.558zm2.578-3.559c.089-.102.18-.206.268-.311-.019-.013-.036-.028-.055-.042-.071.119-.142.238-.213.353zm-2.18 4.027c.715-.07 2.25-.934 3.937-1.953-1.833.727-3.45 1.425-3.937 1.953zm3.936-1.954l.354-.138c-.01-.021-.021-.04-.028-.059-.108.066-.216.133-.326.197zm-3.804 2.553c.666.27 2.426.218 4.395.101-1.961-.208-3.716-.342-4.395-.101zm4.395.1l.339.037.002-.058-.341.021zm-4.554.492c.462.551 2.046 1.321 3.842 2.129-1.639-1.095-3.131-2.027-3.842-2.129zm3.841 2.129c.083.057.167.114.25.168a1.01 1.01 0 0 0 .025-.045c-.09-.039-.184-.081-.275-.123zm-4.261-1.679c.156.701 1.2 2.12 2.414 3.674-.943-1.734-1.83-3.254-2.414-3.674zm2.414 3.671l.125.229c.012-.009.024-.016.037-.024l-.162-.205zm-2.991-3.467c-.188.693.076 2.433.43 4.373-.031-1.972-.109-3.73-.43-4.373zm.429 4.373c.001.078.003.158.003.238.014-.002.027-.004.041-.004a19.229 19.229 0 0 0-.044-.234zm-1.036-4.462c-.49.528-1.064 2.189-1.652 4.072.889-1.759 1.637-3.353 1.652-4.072zm-1.653 4.072l-.104.208.036.015.068-.223zM73 84.934c-.68.239-1.962 1.446-3.357 2.838 1.607-1.144 3.009-2.209 3.357-2.838zm-3.356 2.838l-.205.145c.01.011.02.02.029.032.057-.059.117-.117.176-.177zm3.084-3.387c-.713-.104-2.407.368-4.291.952 1.955-.266 3.688-.556 4.291-.952zm-4.291.954c-.092.013-.187.024-.283.039a.32.32 0 0 0 .013.044c.091-.026.181-.056.27-.083zm4.304-1.567c-.582-.423-2.303-.792-4.242-1.149 1.854.671 3.526 1.22 4.242 1.149zm-4.242-1.149l-.305-.112-.015.054.32.058zm4.539.612c-.318-.643-1.668-1.769-3.219-2.986 1.328 1.455 2.553 2.719 3.219 2.986zm-3.22-2.985l-.251-.275-.042.046c.099.076.198.152.293.229zm3.733 2.649c.017-.718-.656-2.344-1.464-4.142.5 1.906.998 3.593 1.464 4.142zm-1.464-4.142l-.101-.389a1.17 1.17 0 0 0-.063.023l.164.366z" fill="url(#SvgjsRadialGradient2932)" opacity=".4" transform="matrix(2.55 0 0 2.55 45.575 49.393)"/><path d="M240.278 263.592a6.002 6.002 0 0 1-12.003 0 6 6 0 1 1 12.003 0z" fill="#4e60a3"/><path d="M240.278 263.592a6.002 6.002 0 0 1-12.003 0 6 6 0 1 1 12.003 0z" opacity=".9"/><path d="M70.717 86.748a.981.981 0 1 1 1.091 1.63.981.981 0 0 1-1.091-1.63z" fill="url(#SvgjsLinearGradient2938)" opacity=".5" transform="matrix(2.55 0 0 2.55 45.575 49.393)"/><path d="M75.86 83.672c-.251.374-.969.331-1.606-.096-.638-.427-.95-1.078-.7-1.451v-.001c.25-.374.969-.331 1.605.097.639.426.951 1.076.701 1.451z" fill="url(#SvgjsLinearGradient2942)" opacity=".5" transform="matrix(2.55 0 0 2.55 45.575 49.393)"/><path d="M78.716 82.673c-.568.873-2.036.925-3.275.117-1.24-.808-1.784-2.17-1.215-3.043.568-.872 2.036-.924 3.275-.117 1.239.809 1.783 2.172 1.215 3.043z" fill="url(#SvgjsLinearGradient2946)" opacity=".75" transform="matrix(2.55 0 0 2.55 45.575 49.393)"/><path d="M180.838 260.405c2.062 27.792 29.674 60.137 52.29 56.702 26.77.27 53.203-20.064 53.203-56.878s-12.972-67.646-53.874-67.646c-29.325-.003-51.62 31.008-51.62 67.822zm21.567-1.216c-1.29-5.827 13.237-10.132 32.413-7.78 19.171 2.353 32.482 14.086 30.733 20.002-.969 3.28-27.13 8.274-36.345 7.26-9.343-1.033-23.684-5.414-26.8-19.482z" fill="#f0c7b1"/><path d="M72.262 90.163c3.614.398 13.873-1.561 14.253-2.847.687-2.32-4.534-6.921-12.052-7.844-6.46-.792-11.563.344-12.556 2.128.898-6.4 7.7-11.397 15.987-11.434 8.911-.037 16.148 5.676 16.172 12.765.021 7.088-7.185 12.862-16.095 12.902-8.913.037-16.149-5.676-16.173-12.764 0-.105.016-.208.019-.313 1.33 5.327 6.834 7.008 10.445 7.407z" fill="url(#SvgjsRadialGradient3154)" transform="matrix(2.55 0 0 2.55 44.938 48.755)"/><path d="M61.752 82.523c-.506-2.285 5.191-3.973 12.711-3.051 7.518.923 12.738 5.524 12.052 7.844-.38 1.286-10.639 3.245-14.253 2.847-3.664-.405-9.288-2.123-10.51-7.64z" fill="url(#SvgjsRadialGradient3159)" transform="matrix(2.55 0 0 2.55 44.938 48.755)"/><path d="M203.415 246.168c10.73-5.044 23.843-5.508 35.287-2.562 6.13 1.43 12.66 3.276 18.01 6.726 4.96 2.895 8.99 6.375 12.756 10.685-3.422-4.338-7.071-7.95-11.789-10.889-5.804-3.61-12.16-5.85-18.778-7.435-11.694-2.872-24.791-2.219-35.486 3.475z" fill="#c27b55"/><path d="M204.999 247.706c2.244-.898 10.366-2.55 13.913-2.718 4.301-.21 12.936.318 17.174 1.08 8.603 1.551 23.59 6.333 29.779 18.32 1.902 3.685.188 6.263-.314 6.821.765-6.186-12.337-17.202-30.733-19.39-19.176-2.28-33.703 1.895-32.413 7.543 3.117 13.637 17.458 17.883 26.8 18.883 10.453 1.12 29.795-3.925 32.35-4.47-5.097 2.573-19.186 5.342-24.906 5.872-1.897.179-5.712.265-7.614.217-15.17-.403-25.93-8.096-29.909-18.513-2.555-6.696.24-11.396 5.873-13.645z"/><path d="M137.849 82.523c.506-2.285-5.191-3.973-12.711-3.051-7.518.923-12.738 5.524-12.052 7.844.38 1.286 10.639 3.245 14.253 2.847 3.664-.405 9.288-2.123 10.51-7.64z" fill="url(#SvgjsRadialGradient3138)" transform="matrix(2.55 0 0 2.55 44.938 48.755)"/><path d="M380.9 263.592c0 8.449-6.852 15.3-15.297 15.3-8.448 0-15.303-6.851-15.303-15.3 0-8.45 6.855-15.3 15.303-15.3 8.445-.002 15.297 6.85 15.297 15.3z" fill="#4e60a3"/><path d="M125.328 78.066l-.071.009c.029.135.058.271.085.406-.006-.137-.009-.277-.014-.415zm.013.414c.069 1.972.185 3.729.518 4.364.174-.696-.124-2.43-.518-4.364zm.517 4.365c-.042.167-.108.281-.207.319-.101.038-.226-.006-.367-.103.04.167.036.297-.036.378-.072.081-.201.101-.372.078.112.13.171.249.146.353-.028.104-.134.182-.293.242.158.063.265.141.29.245.025.104-.032.223-.145.352.17-.021.3.001.37.082.071.081.075.212.035.379.141-.097.266-.139.365-.1.102.038.166.152.206.32.08-.152.172-.249.279-.26.105-.014.217.059.329.188.002-.172.037-.299.128-.36.087-.061.219-.049.379.013-.078-.152-.104-.281-.056-.377.051-.095.174-.146.345-.166-.141-.099-.228-.2-.225-.308-.001-.108.084-.209.227-.306-.171-.021-.291-.072-.342-.167-.05-.095-.022-.225.057-.377-.161.06-.291.072-.38.011s-.124-.188-.125-.36c-.111.128-.224.199-.33.185-.107-.014-.198-.108-.278-.261zm.608.075c.479-.535 1.021-2.209 1.569-4.104-.853 1.777-1.567 3.386-1.569 4.104zm1.569-4.104c.06-.122.121-.246.179-.37-.021-.007-.042-.017-.063-.026l-.116.396zm-1.063 4.454c.673-.252 1.932-1.483 3.298-2.905-1.582 1.176-2.963 2.269-3.298 2.905zm3.298-2.905l.305-.225c-.015-.018-.03-.033-.042-.049-.088.09-.175.183-.263.274zm-3.015 3.449c.713.088 2.399-.417 4.271-1.041-1.948.308-3.678.633-4.271 1.041zm4.271-1.04l.337-.052-.014-.057-.323.109zm-4.273 1.653c.591.412 2.318.747 4.263 1.063-1.866-.633-3.549-1.148-4.263-1.063zm4.263 1.063c.095.033.19.067.285.098a.92.92 0 0 0 .013-.05 15.38 15.38 0 0 1-.298-.048zm-4.551-.52c.332.637 1.708 1.738 3.282 2.924-1.358-1.43-2.609-2.668-3.282-2.924zm3.283 2.922l.178.189c.01-.012.02-.021.031-.032-.07-.052-.142-.105-.209-.157zm-3.787-2.575c-.003.719.702 2.331 1.547 4.113-.54-1.897-1.071-3.575-1.547-4.113zm1.547 4.114c.021.075.043.152.063.229a.474.474 0 0 1 .039-.014 49.358 49.358 0 0 0-.102-.215zm-2.157-4.042c-.336.637-.461 2.39-.542 4.361.404-1.93.713-3.663.542-4.361zm-.542 4.361c-.017.075-.031.151-.047.228.014.003.024.003.039.005l.008-.233zm-.03-4.581c-.596.407-1.521 1.904-2.508 3.61 1.255-1.52 2.334-2.912 2.508-3.61zm-2.508 3.61c-.052.063-.107.13-.161.193.013.008.024.014.037.024l.124-.217zm2.103-4.069c-.716.083-2.23.978-3.897 2.029 1.818-.762 3.418-1.491 3.897-2.029zm-3.897 2.031c-.087.036-.175.072-.263.11a.273.273 0 0 0 .023.04l.24-.15zm3.752-2.628c-.672-.257-2.43-.168-4.396-.011 1.965.168 3.722.265 4.396.011zm-4.396-.011l-.322-.029c-.001.019-.003.038-.001.056l.323-.027zm4.543-.583c-.474-.539-2.069-1.277-3.882-2.051 1.659 1.06 3.169 1.964 3.882 2.051zm-3.882-2.051l-.315-.201a1.399 1.399 0 0 1-.028.055c.115.049.232.097.343.146zm4.29 1.593c-.169-.698-1.241-2.094-2.485-3.623.976 1.712 1.893 3.213 2.485 3.623zm-2.485-3.623a19.685 19.685 0 0 1-.198-.349l-.057.039c.085.103.172.207.255.31z" fill="url(#SvgjsRadialGradient2951)" opacity=".7" transform="matrix(2.55 0 0 2.55 44.3 49.393)"/><path d="M126.886 78.086l-.07-.01-.024.414c.029-.134.062-.27.094-.404zm-.095.403c-.443 1.922-.787 3.649-.63 4.35.35-.628.51-2.38.63-4.35zm-.63 4.35c-.084.15-.177.243-.283.254-.106.01-.216-.064-.327-.195-.004.171-.042.297-.133.356-.09.059-.221.045-.38-.021.075.155.101.285.049.378-.054.094-.176.142-.346.158.138.101.22.204.217.312-.002.107-.089.207-.23.302.17.024.289.079.337.174.048.096.018.225-.064.375.162-.057.293-.065.38-.002.087.063.12.19.115.363.117-.125.229-.196.337-.179.105.014.194.113.27.268.046-.167.113-.279.216-.315.101-.036.226.01.363.111-.035-.167-.028-.299.045-.378.072-.079.204-.096.375-.072-.11-.132-.168-.251-.138-.355.027-.104.136-.18.299-.237-.159-.064-.263-.145-.288-.25-.022-.105.038-.223.154-.349-.172.016-.302-.006-.37-.088-.07-.082-.072-.214-.027-.379-.143.094-.269.134-.368.093-.102-.041-.166-.156-.203-.324zm.568.231c.601-.394 1.557-1.871 2.578-3.558-1.285 1.495-2.391 2.863-2.578 3.558zm2.578-3.559c.089-.102.18-.206.269-.311-.02-.013-.037-.028-.056-.042-.071.119-.142.238-.213.353zm-2.18 4.027c.715-.07 2.249-.934 3.937-1.953-1.833.727-3.45 1.425-3.937 1.953zm3.936-1.954l.354-.138c-.01-.021-.021-.04-.028-.059-.108.066-.216.133-.326.197zm-3.804 2.553c.666.27 2.426.218 4.396.101-1.963-.208-3.717-.342-4.396-.101zm4.395.1l.339.037.002-.058-.341.021zm-4.554.492c.463.551 2.046 1.321 3.842 2.129-1.639-1.095-3.131-2.027-3.842-2.129zm3.841 2.129c.082.057.167.114.25.168a.328.328 0 0 0 .024-.045 15.678 15.678 0 0 1-.274-.123zm-4.26-1.679c.155.701 1.199 2.12 2.413 3.674-.943-1.734-1.829-3.254-2.413-3.674zm2.414 3.671l.124.229a.337.337 0 0 1 .037-.024c-.054-.068-.11-.138-.161-.205zm-2.992-3.467c-.188.693.076 2.433.43 4.373-.031-1.972-.109-3.73-.43-4.373zm.429 4.373c.001.078.003.158.003.238.015-.002.026-.004.04-.004a9.592 9.592 0 0 0-.043-.234zm-1.037-4.462c-.489.528-1.064 2.189-1.652 4.072.89-1.759 1.637-3.353 1.652-4.072zm-1.652 4.072l-.104.208.035.015.069-.223zM125 84.934c-.68.239-1.961 1.446-3.356 2.838 1.606-1.144 3.008-2.209 3.356-2.838zm-3.356 2.838l-.205.145c.01.011.02.02.029.032.057-.059.118-.117.176-.177zm3.084-3.387c-.713-.104-2.406.368-4.29.952 1.954-.266 3.688-.556 4.29-.952zm-4.29.954c-.093.013-.188.024-.283.039l.013.044c.09-.026.18-.056.27-.083zm4.303-1.567c-.582-.423-2.303-.792-4.242-1.149 1.854.671 3.526 1.22 4.242 1.149zm-4.242-1.149l-.305-.112a.752.752 0 0 0-.015.054l.32.058zm4.539.612c-.318-.643-1.669-1.769-3.22-2.986 1.329 1.455 2.554 2.719 3.22 2.986zm-3.22-2.985l-.251-.275-.043.046c.099.076.2.152.294.229zm3.733 2.649c.017-.718-.656-2.344-1.464-4.142.501 1.906.998 3.593 1.464 4.142zm-1.464-4.142l-.102-.389a1.17 1.17 0 0 0-.063.023l.165.366z" fill="url(#SvgjsRadialGradient2955)" opacity=".4" transform="matrix(2.55 0 0 2.55 44.3 49.393)"/><path d="M371.603 263.592a6 6 0 0 1-6 6 6 6 0 1 1 0-12.002 6 6 0 0 1 6 6.002z" fill="#4e60a3"/><path d="M371.603 263.592a6 6 0 0 1-6 6 6 6 0 1 1 0-12.002 6 6 0 0 1 6 6.002z" opacity=".9"/><path d="M122.718 86.748a.98.98 0 1 1 1.09 1.628.98.98 0 0 1-1.09-1.628z" fill="url(#SvgjsLinearGradient2961)" opacity=".5" transform="matrix(2.55 0 0 2.55 44.3 49.393)"/><path d="M127.859 83.672c-.251.374-.969.331-1.605-.096-.638-.427-.95-1.078-.7-1.451l.001-.001c.25-.374.969-.331 1.605.097.638.426.95 1.076.699 1.451z" fill="url(#SvgjsLinearGradient2965)" opacity=".5" transform="matrix(2.55 0 0 2.55 44.3 49.393)"/><path d="M130.717 82.673c-.569.873-2.036.925-3.276.117-1.239-.808-1.784-2.17-1.215-3.043.568-.872 2.035-.924 3.275-.117 1.239.809 1.783 2.172 1.216 3.043z" fill="url(#SvgjsLinearGradient2969)" opacity=".75" transform="matrix(2.55 0 0 2.55 44.3 49.393)"/><path d="M366.398 192.58c-40.902 0-53.873 30.832-53.873 67.646s26.433 57.151 53.203 56.878c22.616 3.435 50.227-28.91 52.29-56.702.003-36.811-22.295-67.822-51.62-67.822zm3.254 86.09c-9.216 1.015-35.376-3.98-36.345-7.26-1.752-5.915 11.562-17.648 30.733-20.001 19.176-2.352 33.703 1.955 32.413 7.78-3.116 14.068-17.458 18.449-26.8 19.482z" fill="#f0c7b1"/><path d="M127.339 90.163c-3.614.398-13.873-1.561-14.253-2.847-.687-2.32 4.534-6.921 12.052-7.844 6.46-.792 11.563.345 12.556 2.128-.898-6.4-7.7-11.397-15.987-11.434-8.911-.037-16.148 5.676-16.172 12.765-.021 7.088 7.185 12.862 16.095 12.902 8.913.037 16.149-5.676 16.173-12.764 0-.105-.016-.208-.019-.313-1.331 5.327-6.835 7.008-10.445 7.407z" fill="url(#SvgjsRadialGradient3174)" transform="matrix(2.55 0 0 2.55 44.938 48.755)"/><path d="M137.849 82.523c.506-2.285-5.191-3.973-12.711-3.051-7.518.923-12.738 5.524-12.052 7.844.38 1.286 10.639 3.245 14.253 2.847 3.664-.405 9.288-2.123 10.51-7.64z" fill="url(#SvgjsRadialGradient3179)" transform="matrix(2.55 0 0 2.55 44.938 48.755)"/><path d="M395.44 246.168c-10.73-5.044-23.842-5.508-35.287-2.562-6.13 1.43-12.66 3.276-18.01 6.726-4.96 2.895-8.989 6.375-12.755 10.685 3.422-4.338 7.07-7.95 11.788-10.889 5.804-3.61 12.161-5.85 18.779-7.435 11.696-2.872 24.793-2.219 35.485 3.475z" fill="#c27b55"/><path d="M393.86 247.706c-2.245-.898-10.366-2.55-13.913-2.718-4.302-.21-12.937.318-17.175 1.08-8.603 1.551-23.59 6.333-29.779 18.32-1.902 3.685-.188 6.263.314 6.821-.765-6.186 12.337-17.202 30.733-19.39 19.176-2.28 33.703 1.895 32.413 7.543-3.116 13.637-17.458 17.883-26.8 18.883-10.453 1.12-29.795-3.925-32.35-4.47 5.097 2.573 19.186 5.342 24.906 5.872 1.897.179 5.712.265 7.614.217 15.17-.403 25.93-8.096 29.909-18.513 2.555-6.696-.24-11.396-5.873-13.645z"/><path d="M141 113.974c.035 22.622-18.292 40.994-40.938 41.025-22.642.037-41.028-18.273-41.063-40.9-.035-22.62 18.292-41.064 40.937-41.1 22.643-.035 41.031 18.35 41.064 40.975z" fill="url(#SvgjsRadialGradient2886)" transform="matrix(2.55 0 0 2.55 44.938 48.755)"/><path d="M137.5 53.999c0 20.711-16.789 37.5-37.499 37.5-20.711 0-37.501-16.789-37.501-37.5s16.79-37.5 37.501-37.5c20.71 0 37.499 16.789 37.499 37.5z" fill="url(#SvgjsRadialGradient2890)" transform="matrix(2.55 0 0 2.55 44.938 48.755)"/><path d="M182.638 237.937c25.383-25.434 42.74-15.083 78.002-8.323 2.154.413 16.116 3.924 13.54 8.846-1.231 2.356-5.192 2.075-7.402 2.035-34.905-.653-51.878-25.488-84.14-2.558zm234.6 0c-25.38-25.434-42.74-15.083-78.002-8.323-2.158.413-16.116 3.924-13.543 8.846 1.231 2.356 5.192 2.075 7.402 2.035 34.905-.653 51.88-25.488 84.143-2.558z" fill="#2a232b"/><path d="M277.281 343.277c-2.239 5.264 15.132 10.945 21.723 11.294 7.14.375 27.148-7.395 23.756-12.73-3.567-5.597-16.94-.729-22.71-.729-5.743-.002-19.77-4.857-22.769 2.165z" fill="#e1ac8f"/><path d="M304.673 347.253c-.586-1.936 4.784-4.04 6.775-4.32 2.808-.408 8.568 2.045 8.053 4.06-.469 1.78-5.477-1.36-7.293-1.094-1.871.273-6.979 3.167-7.535 1.354zm-17.552-.63c2.469 0 6.13 1.589 6.804.189.803-1.67-5.455-3.726-7.293-3.499-1.52.179-6.97 3.353-6.22 4.69.7 1.226 3.456-1.38 6.71-1.38z" fill="#c27b55"/><path d="M300.165 334.352c1.548 0 4.442-1.887 4.57-5.686.512-15.32-2.438-60.774-4.57-60.614-1.99.15-5.781 44.975-4.968 60.614.202 3.83 3.221 5.686 4.968 5.686z" fill="#fff5ef" opacity=".2"/><path d="M159.622 290.737c-6.18-22.478-9.507-42.159-14.127-62.692l.211-.048c-1.75-4.307-8.063-38.403-8.122-38.77-6.438-45.314 12.733-47.9 12.342-66.805 8.071 4.042 15.918 2.037 22.999-3.48-7.441-3.823-5.092-4.428-14.974-10.443 6.964-1.204 11.032.42 16.948 1.158-5.057-5.057-14.982-15.372-21.43-14.005l-.421-.903c9.335-7.285 21.797 7.882 33.032 3.774.34-41.75 61.371-50.42 76.225-56.625 19.775-7.525 40.433-24.074 54.96-25.553-8.224 8.264-13.26 21.545-13.635 31.512 11.98-11.439 12.827-11.105 30.985-31.273 0 16.228-4.495 18.266-10.33 27.79C340.123 33.996 359.87 4.877 390.282.425l.334.943c-10.96 6.457-19.441 17.35-25.24 32.406 5.755-6.951 13.9-14.492 22.914-15.856l.34.94c-5.649 3.38-16.713 14.643-19.246 33.503 11.172-12.477 28.943-22.818 41.142-26.724l.477.882c-11.2 9.111-15.69 25.061-18.222 38.622 7.854-11.679 12.423-14.34 22.304-19.247-3.18 4.756-2.973 3.924-5.502 9.093 6.11 15.614 26.298 16.22 29.748 43.5 4.156-3.63 5.806-4.54 10.585-7.884l.719.694c-3.59 5.577-6.55 15.453-8.522 22.062 7.089-5.413 18.036-9.402 25.745-12.184l.538.837c-6.505 6.612-14.403 16.692-15.713 27.626 2.55-1.51 2.672-1.336 5.992-3.738 0 7.857.268 6.855.324 10.468 3.205-2.869 3.698-3.27 5.804-5.562-.467 82.523-4.705 66.076-16.109 123.589-1.999 10.105-5.536 27.751-7.805 36.227l-15.425 2.65c4.768-57.105-.237-44.656 3.23-80.59 5.131-52.987-37.75-96.42-94.413-82.205-11.465 2.877-57.222 2.874-68.682 0-62.594-15.715-85.147 20.86-91.866 84.86-3.292 31.41-4.098 20.81.681 77.935l-14.792-2.535z" fill="#3b3128"/><path d="M458.996 136.37c-.053-3.615-.323-2.61-.323-10.467-3.32 2.4-3.443 2.228-5.993 3.738 1.31-10.934 9.208-21.014 15.713-27.627l-.538-.836c-7.706 2.785-18.653 6.77-25.745 12.184 1.969-6.61 4.932-16.486 8.522-22.063l-.719-.693c-4.778 3.343-6.428 4.253-10.585 7.884-3.45-27.277-23.638-27.887-29.748-43.5 2.53-5.169 2.323-4.338 5.503-9.093-9.881 4.906-14.45 7.568-22.305 19.247 2.532-13.561 7.025-29.511 18.222-38.622l-.476-.883c-12.2 3.907-29.97 14.247-41.142 26.724 2.532-18.86 13.596-30.123 19.245-33.502l-.34-.94c-9.014 1.364-17.158 8.907-22.914 15.855 5.799-15.055 14.283-25.948 25.24-32.405l-.334-.943c-30.411 4.452-50.158 33.57-65.996 43.949 5.834-9.525 10.33-11.565 10.33-27.79-18.159 20.168-19.006 19.834-30.985 31.273.372-9.968 5.41-23.25 13.634-31.513-14.524 1.48-35.182 18.026-54.96 25.554-14.85 6.201-75.883 14.871-76.222 56.625-11.235 4.108-23.697-11.06-33.032-3.774l.42.903c6.45-1.37 16.374 8.945 21.43 14.004-5.913-.737-9.983-2.361-16.947-1.157 9.882 6.015 7.533 6.62 14.974 10.442-7.081 5.518-14.928 7.522-22.999 3.48.39 18.909-18.783 21.494-12.342 66.805.06.368 6.373 34.464 8.122 38.77l-.211.049c4.62 20.533 7.948 40.216 14.127 62.692l.066.007c-1.686-41.927-28.101-101.53-12.6-139.709 2.022-4.985 9.846-18.133 9.846-18.133s24.549-3.223 25.704-12.75c0 0-5.1-2.55-7.65-5.1 5.1 2.55 5.1-5.1 10.2-2.55 0-5.1-7.65-2.55-7.65-7.65 5.1 0 10.2 0 15.3 5.1-2.55-12.75 0-25.5 10.2-33.15 25.5-20.4 58.65-17.85 84.15-38.25-2.55 12.75-5.1 25.5-5.1 38.25 15.3-7.65 20.4-22.95 33.15-33.15 2.55 10.2-2.55 22.95-2.55 33.15 7.65-17.85 17.85-35.7 40.8-40.8-10.2 10.2-10.2 25.5-10.2 38.25 0-10.2 10.2-15.3 12.75-22.95v30.6c5.1-15.3 15.3-22.95 28.05-28.05-10.2 10.2-7.65 20.4-10.2 33.15 7.65-7.65 17.85-10.2 25.5-17.85 7.65 15.3 2.55 28.05 2.55 43.35 2.55-12.75 15.3-20.4 22.95-30.6 2.55 12.75 2.55 25.5 0 38.25 2.55-7.65 7.65-12.75 10.2-20.4 0 12.393-1.704 23.108-5.05 33.512 3.2-3.702 8.426-5.383 10.15-10.562v30.669c1.479-3.04 5.84-4.1 7.65-7.719-2.178 8.703-.648 15.563-.15 23.72.945-4.998 5.757-8.063 7.496-12.666.102-1.984.207-3.97.301-5.954.584 2.326.344 4.243-.3 5.954-2.326 45.316-6.613 90.566-15.954 134.202l1.653-.283c2.27-8.477 5.804-26.123 7.805-36.228 11.407-57.513 15.645-41.065 16.109-123.589-2.104 2.293-2.596 2.693-5.802 5.56z" fill="#4a423a"/><path d="M472.774 98.977c-12.62 2.127-21.435 6.217-28.177 10.838.981-2.563 5.592-17.009 10.557-23.078-7.625 3.4-12.036 7.046-14.586 8.95 0-2.63-1.015-5.67-1.505-7.241-.482-1.313-.887-2.849-3.24-6.681-13.187-18.605-14.01-10.822-24.81-25.067 1.969-4.618 4.817-9.108 8.39-12.826-9.966 1.415-15.211 5.291-21.522 11.5a2.649 2.649 0 0 0-.255.306c3.955-15.621 11.704-29.164 26.928-34.246-18.83-.684-42.14 13.24-53.856 27.132 5.059-16.272 11.847-24.024 21.932-31.238-7.257-1.073-14.369 1.892-19.994 6.58 6.48-11.213 16.108-20.143 23.845-24.302-1.1-.026-2.397-.102-3.825 0-1.982-.508-13.972 1.443-18.258 3.29-21.24 8.292-36.692 27.595-43.325 33.863 4.886-7.9 5.126-13.51 4.233-21.726-1.67 1.436-29.618 28.19-29.962 28.535 1.981-10.988 5.724-17.69 12.8-27.515-12.614-2.36-44.196 18.404-63.775 23.945-20.512 5.556-71.41 17.143-69.08 57.885-10.951 2.088-26.988-15.497-35.393-.74 6.747-4.003 15.685 5.636 21.904 11.144-2.55-.416-11.074-2.418-15.198.331 4.83 1.875 9.053 7.477 15.02 10.455a.906.906 0 0 1 .23.102c-5.455 2.877-11.902 5.187-17.825 3.545-.893-.255-1.48-.408-1.48-.434-.688-.306-1.427-.612-2.218-.969h-.025l-.026-.025a36.586 36.586 0 0 0-1.02-.536c1.773 14.3-19.933 25.896-17.544 56.151.982 18.618 12.62 75.246 27.25 113.643l1.231.368c-6.1-21.997-9.631-42.687-14.2-62.988-.398 0-7.837-38.362-7.906-38.785-6.39-44.96 12.735-48.22 12.368-65.892 7.958 3.98 16.656 1.112 23.409-4.412-7.951-3.955-6.255-5.07-14.484-10.072 5.515-.954 12.247 1.231 16.88 1.53-5.981-5.983-16.062-16.6-22.898-15.147 9.098-7.102 21.667 8.34 33.226 3.723 0-41.777 60.494-50.07 75.914-56.508 18.54-7.054 41.521-24.164 53.394-25.373-6.222 6.268-12.8 20.148-12.8 32.08 12.326-11.828 13.54-11.769 31.007-31.162 0 15.336-5.73 18.075-11.299 27.974 16.356-9.43 36.157-40.362 67.55-44.957-13.143 7.745-21.51 21.23-26.546 35.624 5.998-7.8 14.79-16.652 24.557-18.13-5.123 3.064-17.496 14.743-19.686 35.52 11.08-13.04 29.544-23.831 41.998-27.82-11.743 9.558-16.238 26.446-18.844 41.361 4.301-6.56 8.56-12.487 15.223-16.677a.206.206 0 0 1 .102-.05c2.624-1.783 1.938-1.299 6.429-3.545-1.706 2.55-1.864 2.218-4.565 7.752 6.186 16.261 26.834 16.353 29.91 44.548 4.734-4.2 6.224-4.957 11.27-8.491-3.932 6.104-7.1 17.258-9.052 23.766 7.407-6.337 21.111-11.042 26.877-13.133-7.65 7.778-15.079 18.095-15.963 28.968 1.565-1.053 3.554-1.887 6.094-3.723 0 6.946.332 6.018.332 10.608 1.34-1.226 4.386-3.85 5.79-5.38-.5 80.875-4.793 65.188-16.092 122.17-4.228 21.359-6.46 31.238-7.857 36.422l1.091-.222c9.14-27.415 27.38-89.357 26.556-121.42-.084-11.986-2.7-36.976-2.83-39.526-.054.046-5.315 5.024-5.38 5.024 0-1.303-.536-6.847-.536-9.869-.9.691-2.793 1.984-5.33 3.468 3.517-10.615 8.869-17.212 18.87-29.195z" fill="#0d0905"/><path d="M411.169 304.01c-6.018 5.61-15.887 7.752-34.578 7.752-24.94 0-41.26-2.78-52.046-24.25-8.39-16.678-11.78-34.579-7.7-40.75 5.635-8.517 21.853-14.305 39.958-16.014 31.441 14.943 53.524 44.906 54.366 73.262zm-182.606-73.772c-19.482.536-38.48 5.993-46.588 17.978-5.56 8.185-4.31 32.002-.561 43.197 5.1 15.274 12.928 20.349 41.87 20.349 24.94 0 41.26-2.78 52.046-24.25a113.308 113.308 0 0 0 2.984-6.478c-8.237-20.757-26.418-39.933-49.75-50.796z" fill="#fff" opacity=".2"/><path d="M418.462 291.438c-1.81 5.406-3.978 9.512-7.293 12.597-.842-28.356-22.925-58.318-54.392-73.287 23.894-2.269 50.975 2.525 61.124 17.493 5.559 8.186 4.31 31.977.56 43.197zm-135.405-44.676c-7.115-10.786-31.161-17.161-54.494-16.498 23.358 10.837 41.514 30.013 49.776 50.796 6.146-14.637 8.262-28.917 4.718-34.298z" fill="#fff" opacity=".4"/><path d="M432.002 236.46c-25.959-13.923-92.157-17.875-116.025.383-2.04 1.198-10.786-1.352-16.04-1.352-4.972 0-13.82 2.678-16.039 1.352-23.868-18.258-90.066-14.306-116.025-.383-3.723 2.015-4.13 11.501-.892 12.954 2.32 1.046 3.85 2.5 3.723 5.05-.816 14.33 3.136 32.945 4.87 38.07 2.219 6.605 6.222 18.896 23.69 21.93 14.866 2.576 41.896 3.775 55.947-.433 25.474-7.599 36.312-46.002 36.77-59.083l.026.051c1.02-4.59 14.841-4.59 15.887 0l.025-.051c.434 13.081 11.297 51.484 36.771 59.083 14.05 4.208 41.08 3.01 55.947.434 17.468-3.035 21.471-15.326 23.69-21.93 1.734-5.151 5.686-23.74 4.896-38.072-.128-2.55 1.428-4.003 3.723-5.049 3.187-1.453 2.78-10.939-.944-12.954zm-179.469 70.763c-12.903 3.85-36.516 4.105-50.26 1.708-11.577-2.014-16.422-8.313-19.635-17.926-3.774-11.22-4.769-34.45.408-42.075 17.238-25.449 86.368-20.528 98.94-1.479 5.61 8.542-5.279 52.555-29.453 59.772zm164.705-16.193c-3.213 9.614-8.084 15.912-19.635 17.927-13.745 2.397-37.358 2.142-50.26-1.709-24.175-7.216-35.063-51.229-29.453-59.772 12.571-19.048 81.702-23.97 98.94 1.48 5.176 7.598 4.182 30.854.408 42.074z" fill="#26120b"/><path d="M347.317 307.12c7.114 2.117 17.493 3.163 27.667 3.24-31.977 3.11-39.244-8.67-43.656-13.159-8.976-9.154-14.51-22.822-14.917-42.457.076 15.504 10.965 46.435 30.906 52.377zm-63.47-70.379c-23.868-18.258-90.066-14.331-116.025-.383 59.262-16.626 93.687-8.032 116.025.383zm-81.625 72.114c-11.577-2.015-16.422-8.313-19.635-17.927-3.366-10.021-4.514-29.63-1.02-39.142-4.667 10.761-2.856 31.594.663 42.075 4.08 12.24 11.577 18.309 44.217 16.473-8.849.178-17.672-.357-24.225-1.48zm232.79-65.535c-.103-2.882-1.148-5.916-3.06-6.962-25.45-13.668-89.608-17.697-114.572-.637 33.558-13.439 81.931-15.326 117.631 7.599z" fill="#351d15"/><defs id="SvgjsDefs1001"><radialGradient id="SvgjsRadialGradient2886" cx="100" cy="114" r="41" gradientUnits="userSpaceOnUse" class="svga-on-canvas-facehighlight-gradient-single-0"><stop id="SvgjsStop2887" stop-opacity=".5" stop-color="#ffe4d6" offset="0"/><stop id="SvgjsStop2888" stop-opacity="0" stop-color="#f0c7b1" offset=".9"/></radialGradient><radialGradient id="SvgjsRadialGradient2890" cx="100" cy="54" r="37" gradientUnits="userSpaceOnUse" class="svga-on-canvas-facehighlight-gradient-single-1"><stop id="SvgjsStop2891" stop-opacity=".5" stop-color="#ffe4d6" offset="0"/><stop id="SvgjsStop2892" stop-opacity="0" stop-color="#f0c7b1" offset=".9"/></radialGradient><radialGradient id="SvgjsRadialGradient2928" cx="-568.659" cy="-521.042" r="59.751" gradientTransform="matrix(.096 -.0248 .0245 .0961 141.281 119.99)" gradientUnits="userSpaceOnUse" class="svga-on-canvas-eyesiris-gradient-left-1"><stop id="SvgjsStop2929" stop-opacity="1" stop-color="#fff" offset="0"/><stop id="SvgjsStop2930" stop-opacity="0" stop-color="#fff" offset="1"/></radialGradient><radialGradient id="SvgjsRadialGradient2932" cx="-582.838" cy="-519.099" r="59.745" gradientTransform="matrix(.0991 .00089 -.0011 .0991 131.113 135.986)" gradientUnits="userSpaceOnUse" class="svga-on-canvas-eyesiris-gradient-left-2"><stop id="SvgjsStop2933" stop-opacity="1" stop-color="#fff" offset="0"/><stop id="SvgjsStop2934" stop-opacity="0" stop-color="#fff" offset="1"/></radialGradient><linearGradient id="SvgjsLinearGradient2938" x1="122.67" y1="88.268" x2="123.606" y2="87.152" gradientTransform="translate(-52)" gradientUnits="userSpaceOnUse" class="svga-on-canvas-eyesiris-gradient-left-5"><stop id="SvgjsStop2939" stop-opacity="1" stop-color="#fff" offset="0"/><stop id="SvgjsStop2940" stop-opacity="0" stop-color="#fff" offset="1"/></linearGradient><linearGradient id="SvgjsLinearGradient2942" x1="127.212" y1="82.296" x2="126.463" y2="83.189" gradientTransform="translate(-52)" gradientUnits="userSpaceOnUse" class="svga-on-canvas-eyesiris-gradient-left-6"><stop id="SvgjsStop2943" stop-opacity="1" stop-color="#fff" offset="0"/><stop id="SvgjsStop2944" stop-opacity="0" stop-color="#fff" offset="1"/></linearGradient><linearGradient id="SvgjsLinearGradient2946" x1="129.636" y1="79.822" x2="127.91" y2="81.879" gradientTransform="translate(-52)" gradientUnits="userSpaceOnUse" class="svga-on-canvas-eyesiris-gradient-left-7"><stop id="SvgjsStop2947" stop-opacity="1" stop-color="#fff" offset="0"/><stop id="SvgjsStop2948" stop-opacity="0" stop-color="#fff" offset="1"/></linearGradient><radialGradient id="SvgjsRadialGradient2951" cx="-568.654" cy="-521.042" r="59.752" gradientTransform="matrix(.096 -.0248 .0245 .0961 193.28 119.99)" gradientUnits="userSpaceOnUse" class="svga-on-canvas-eyesiris-gradient-right-1"><stop id="SvgjsStop2952" stop-opacity="1" stop-color="#fff" offset="0"/><stop id="SvgjsStop2953" stop-opacity="0" stop-color="#fff" offset="1"/></radialGradient><radialGradient id="SvgjsRadialGradient2955" cx="-582.833" cy="-519.102" r="59.747" gradientTransform="matrix(.0991 .00089 -.0011 .0991 183.113 135.986)" gradientUnits="userSpaceOnUse" class="svga-on-canvas-eyesiris-gradient-right-2"><stop id="SvgjsStop2956" stop-opacity="1" stop-color="#fff" offset="0"/><stop id="SvgjsStop2957" stop-opacity="0" stop-color="#fff" offset="1"/></radialGradient><linearGradient id="SvgjsLinearGradient2961" x1="122.67" y1="88.268" x2="123.606" y2="87.152" gradientUnits="userSpaceOnUse" class="svga-on-canvas-eyesiris-gradient-right-5"><stop id="SvgjsStop2962" stop-opacity="1" stop-color="#fff" offset="0"/><stop id="SvgjsStop2963" stop-opacity="0" stop-color="#fff" offset="1"/></linearGradient><linearGradient id="SvgjsLinearGradient2965" x1="127.212" y1="82.296" x2="126.463" y2="83.189" gradientUnits="userSpaceOnUse" class="svga-on-canvas-eyesiris-gradient-right-6"><stop id="SvgjsStop2966" stop-opacity="1" stop-color="#fff" offset="0"/><stop id="SvgjsStop2967" stop-opacity="0" stop-color="#fff" offset="1"/></linearGradient><linearGradient id="SvgjsLinearGradient2969" x1="129.636" y1="79.822" x2="127.91" y2="81.879" gradientUnits="userSpaceOnUse" class="svga-on-canvas-eyesiris-gradient-right-7"><stop id="SvgjsStop2970" stop-opacity="1" stop-color="#fff" offset="0"/><stop id="SvgjsStop2971" stop-opacity="0" stop-color="#fff" offset="1"/></linearGradient><linearGradient id="SvgjsLinearGradient3015" x1="100" y1="142" x2="100" y2="139" gradientUnits="userSpaceOnUse" class="svga-on-canvas-mouth-gradient-single-0"><stop id="SvgjsStop3016" stop-opacity="1" stop-color="#e8b9a0" offset=".1"/><stop id="SvgjsStop3017" stop-opacity="1" stop-color="#e1ac8f" offset="1"/></linearGradient><linearGradient id="SvgjsLinearGradient3044" x1="100" y1="171" x2="100" y2="131" gradientUnits="userSpaceOnUse" class="svga-on-canvas-chinshadow-gradient-single-0"><stop id="SvgjsStop3045" stop-opacity=".8" stop-color="#e1ac8f" offset="0"/><stop id="SvgjsStop3046" stop-opacity="1" stop-color="#c27b55" offset=".7"/></linearGradient><radialGradient id="SvgjsRadialGradient3131" cx="129.041" cy="83.945" r="15.117" gradientTransform="scale(-1 1) rotate(5.981 22.864 -1851.752)" gradientUnits="userSpaceOnUse" class="svga-on-canvas-eyesback-gradient-left-0"><stop id="SvgjsStop3132" stop-opacity="1" stop-color="#fff" offset="0"/><stop id="SvgjsStop3133" stop-opacity="1" stop-color="#fcfdfd" offset=".315"/><stop id="SvgjsStop3134" stop-opacity="1" stop-color="#f4f7f8" offset=".504"/><stop id="SvgjsStop3135" stop-opacity="1" stop-color="#e5ecef" offset=".66"/><stop id="SvgjsStop3136" stop-opacity="1" stop-color="#d8e2e7" offset=".76"/></radialGradient><radialGradient id="SvgjsRadialGradient3138" cx="128.643" cy="83.986" r="15.116" gradientTransform="rotate(5.981 122.87 62.427)" gradientUnits="userSpaceOnUse" class="svga-on-canvas-eyesback-gradient-right-0"><stop id="SvgjsStop3139" stop-opacity="1" stop-color="#fff" offset="0"/><stop id="SvgjsStop3140" stop-opacity="1" stop-color="#fcfdfd" offset=".316"/><stop id="SvgjsStop3141" stop-opacity="1" stop-color="#f4f7f8" offset=".505"/><stop id="SvgjsStop3142" stop-opacity="1" stop-color="#e5ecef" offset=".661"/><stop id="SvgjsStop3143" stop-opacity="1" stop-color="#d8e2e7" offset=".76"/></radialGradient><radialGradient id="SvgjsRadialGradient3145" cx="129.041" cy="83.945" r="15.117" gradientTransform="scale(-1 1) rotate(5.981 22.864 -1851.752)" gradientUnits="userSpaceOnUse" class="svga-on-canvas-eyesfront-gradient-left-0"><stop id="SvgjsStop3146" stop-opacity="1" stop-color="#fff" offset="0"/><stop id="SvgjsStop3147" stop-opacity="1" stop-color="#fcfdfd" offset=".316"/><stop id="SvgjsStop3148" stop-opacity="1" stop-color="#f4f7f8" offset=".505"/><stop id="SvgjsStop3149" stop-opacity="1" stop-color="#e5ecef" offset=".661"/><stop id="SvgjsStop3150" stop-opacity="1" stop-color="#d8e2e7" offset=".76"/></radialGradient><radialGradient id="SvgjsRadialGradient3154" cx="121.986" cy="82.496" fx="133.239" fy="82.527" r="16.003" gradientTransform="matrix(.9998 .0208 .0166 -.7998 -45.32 145.94)" gradientUnits="userSpaceOnUse" class="svga-on-canvas-eyesfront-gradient-left-3"><stop id="SvgjsStop3155" stop-opacity="1" stop-color="#e1ac8f" offset="0"/><stop id="SvgjsStop3156" stop-opacity=".3" stop-color="#e1ac8f" offset=".7"/><stop id="SvgjsStop3157" stop-opacity="0" stop-color="#f0c7b1" offset="1"/></radialGradient><radialGradient id="SvgjsRadialGradient3159" cx="68.931" cy="105.995" r="29.524" gradientTransform="translate(-1.68 1.313) scale(1.0336)" gradientUnits="userSpaceOnUse" class="svga-on-canvas-eyesfront-gradient-left-4"><stop id="SvgjsStop3160" stop-opacity="0" stop-color="#000" offset=".95"/><stop id="SvgjsStop3161" stop-opacity=".2" stop-color="#000" offset="1"/></radialGradient><radialGradient id="SvgjsRadialGradient3165" cx="128.643" cy="83.986" r="15.116" gradientTransform="rotate(5.981 122.87 62.427)" gradientUnits="userSpaceOnUse" class="svga-on-canvas-eyesfront-gradient-right-0"><stop id="SvgjsStop3166" stop-opacity="1" stop-color="#fff" offset="0"/><stop id="SvgjsStop3167" stop-opacity="1" stop-color="#fcfdfd" offset=".316"/><stop id="SvgjsStop3168" stop-opacity="1" stop-color="#f4f7f8" offset=".505"/><stop id="SvgjsStop3169" stop-opacity="1" stop-color="#e5ecef" offset=".661"/><stop id="SvgjsStop3170" stop-opacity="1" stop-color="#d8e2e7" offset=".76"/></radialGradient><radialGradient id="SvgjsRadialGradient3174" cx="121.587" cy="82.496" fx="132.839" fy="82.527" r="16.003" gradientTransform="matrix(-.9998 .0208 -.0166 -.7998 244.52 145.948)" gradientUnits="userSpaceOnUse" class="svga-on-canvas-eyesfront-gradient-right-3"><stop id="SvgjsStop3175" stop-opacity="1" stop-color="#e1ac8f" offset="0"/><stop id="SvgjsStop3176" stop-opacity=".3" stop-color="#e1ac8f" offset=".7"/><stop id="SvgjsStop3177" stop-opacity="0" stop-color="#f0c7b1" offset="1"/></radialGradient><radialGradient id="SvgjsRadialGradient3179" cx="69.316" cy="105.995" r="29.524" gradientTransform="matrix(-1.0336 0 0 1.0336 201.68 1.313)" gradientUnits="userSpaceOnUse" class="svga-on-canvas-eyesfront-gradient-right-4"><stop id="SvgjsStop3180" stop-opacity="0" stop-color="#000" offset=".95"/><stop id="SvgjsStop3181" stop-opacity=".2" stop-color="#000" offset="1"/></radialGradient></defs></svg>